<svg width="44" height="44" viewBox="0 0 44 44" fill="none" xmlns="http://www.w3.org/2000/svg">
<g filter="url(#filter0_d_1_58)">
<path d="M22 32C28.6274 32 34 26.6274 34 20C34 13.3726 28.6274 8 22 8C15.3726 8 10 13.3726 10 20C10 26.6274 15.3726 32 22 32Z" fill="white"/>
</g>
<path d="M22 14C23.6302 14 23.8336 14.006 24.4732 14.036C25.1122 14.066 25.5472 14.1662 25.93 14.315C26.326 14.4674 26.6596 14.6738 26.9932 15.0068C27.2983 15.3067 27.5344 15.6696 27.685 16.07C27.8332 16.4522 27.934 16.8878 27.964 17.5268C27.9922 18.1664 28 18.3698 28 20C28 21.6302 27.994 21.8336 27.964 22.4732C27.934 23.1122 27.8332 23.5472 27.685 23.93C27.5348 24.3307 27.2987 24.6936 26.9932 24.9932C26.6932 25.2982 26.3304 25.5343 25.93 25.685C25.5478 25.8332 25.1122 25.934 24.4732 25.964C23.8336 25.9922 23.6302 26 22 26C20.3698 26 20.1664 25.994 19.5268 25.964C18.8878 25.934 18.4528 25.8332 18.07 25.685C17.6694 25.5347 17.3065 25.2986 17.0068 24.9932C16.7016 24.6933 16.4656 24.3305 16.315 23.93C16.1662 23.5478 16.066 23.1122 16.036 22.4732C16.0078 21.8336 16 21.6302 16 20C16 18.3698 16.006 18.1664 16.036 17.5268C16.066 16.8872 16.1662 16.4528 16.315 16.07C16.4651 15.6693 16.7013 15.3064 17.0068 15.0068C17.3066 14.7015 17.6695 14.4654 18.07 14.315C18.4528 14.1662 18.8872 14.066 19.5268 14.036C20.1664 14.0078 20.3698 14 22 14ZM22 17C21.2044 17 20.4413 17.3161 19.8787 17.8787C19.3161 18.4413 19 19.2044 19 20C19 20.7956 19.3161 21.5587 19.8787 22.1213C20.4413 22.6839 21.2044 23 22 23C22.7956 23 23.5587 22.6839 24.1213 22.1213C24.6839 21.5587 25 20.7956 25 20C25 19.2044 24.6839 18.4413 24.1213 17.8787C23.5587 17.3161 22.7956 17 22 17ZM25.9 16.85C25.9 16.6511 25.821 16.4603 25.6803 16.3197C25.5397 16.179 25.3489 16.1 25.15 16.1C24.9511 16.1 24.7603 16.179 24.6197 16.3197C24.479 16.4603 24.4 16.6511 24.4 16.85C24.4 17.0489 24.479 17.2397 24.6197 17.3803C24.7603 17.521 24.9511 17.6 25.15 17.6C25.3489 17.6 25.5397 17.521 25.6803 17.3803C25.821 17.2397 25.9 17.0489 25.9 16.85ZM22 18.2C22.4774 18.2 22.9352 18.3896 23.2728 18.7272C23.6104 19.0648 23.8 19.5226 23.8 20C23.8 20.4774 23.6104 20.9352 23.2728 21.2728C22.9352 21.6104 22.4774 21.8 22 21.8C21.5226 21.8 21.0648 21.6104 20.7272 21.2728C20.3896 20.9352 20.2 20.4774 20.2 20C20.2 19.5226 20.3896 19.0648 20.7272 18.7272C21.0648 18.3896 21.5226 18.2 22 18.2Z" fill="#122659"/>
<defs>
<filter id="filter0_d_1_58" x="0" y="0" width="44" height="44" filterUnits="userSpaceOnUse" color-interpolation-filters="sRGB">
<feFlood flood-opacity="0" result="BackgroundImageFix"/>
<feColorMatrix in="SourceAlpha" type="matrix" values="0 0 0 0 0 0 0 0 0 0 0 0 0 0 0 0 0 0 127 0" result="hardAlpha"/>
<feOffset dy="2"/>
<feGaussianBlur stdDeviation="5"/>
<feColorMatrix type="matrix" values="0 0 0 0 0.645556 0 0 0 0 0.658545 0 0 0 0 0.691667 0 0 0 0.1 0"/>
<feBlend mode="normal" in2="BackgroundImageFix" result="effect1_dropShadow_1_58"/>
<feBlend mode="normal" in="SourceGraphic" in2="effect1_dropShadow_1_58" result="shape"/>
</filter>
</defs>
</svg>
