<svg display="none" xmlns="http://www.w3.org/2000/svg">
  <symbol id="icon-burger" viewBox="0 0 24 14">
    <path d="M0 1H24M0 7H24M0 13H24" stroke="#122659" stroke-width="2"/>
  </symbol>
  <symbol id="icon-krest" viewBox="0 0 20 20">
    <path d="M1 1L10 10M19 19L10 10M10 10L19 1L1 19" stroke="#122947" stroke-width="2"/>
  </symbol>
  <symbol id="icon-phone"  viewBox="0 0 15 15">
    <path d="M11.404 9.92279C10.9139 9.43898 10.3021 9.43898 9.8152 9.92279C9.44375 10.2911 9.0723 10.6594 8.7071 11.034C8.60721 11.137 8.52294 11.1588 8.4012 11.0902C8.16085 10.9591 7.9049 10.853 7.67391 10.7094C6.59703 10.032 5.69494 9.16118 4.89587 8.18108C4.49945 7.69414 4.14673 7.17288 3.90014 6.58606C3.8502 6.46745 3.85956 6.38942 3.95632 6.29266C4.32777 5.9337 4.68985 5.56538 5.05506 5.19706C5.56385 4.68516 5.56385 4.08586 5.05194 3.57083C4.76165 3.27743 4.47135 2.99026 4.18106 2.69685C3.88141 2.3972 3.58488 2.09443 3.2821 1.7979C2.79204 1.32033 2.18025 1.32033 1.69331 1.80102C1.31874 2.16934 0.959777 2.54703 0.578966 2.9091C0.226247 3.24309 0.0483275 3.65199 0.0108707 4.12956C-0.048436 4.90677 0.14197 5.64029 0.41041 6.35508C0.959777 7.83461 1.79631 9.1487 2.81077 10.3535C4.18106 11.9829 5.81668 13.272 7.7301 14.2022C8.59161 14.6204 9.48433 14.9419 10.4551 14.995C11.1231 15.0325 11.7036 14.8639 12.1687 14.3426C12.4871 13.9868 12.8461 13.6622 13.1832 13.3219C13.6826 12.8163 13.6857 12.2045 13.1894 11.7051C12.5964 11.1089 12.0002 10.5159 11.404 9.92279Z" fill="#122659"/>
    <path d="M10.8075 7.43508L11.9593 7.23843C11.7783 6.18029 11.2789 5.22203 10.5204 4.46042C9.71817 3.65823 8.70371 3.15257 7.58625 2.9965L7.42394 4.15453C8.28857 4.27626 9.07516 4.66643 9.69632 5.28758C10.2831 5.8744 10.6671 6.61728 10.8075 7.43508Z" fill="#122659"/>
    <path d="M12.609 2.42842C11.2793 1.09872 9.59684 0.259073 7.73961 0L7.57729 1.15802C9.1817 1.38276 10.6363 2.11004 11.785 3.25558C12.8743 4.34493 13.5891 5.72145 13.8482 7.23531L15 7.03866C14.6972 5.28446 13.8701 3.69257 12.609 2.42842Z" fill="#122659"/>
  </symbol>
  <symbol id="icon-logo" viewBox="0 0 132 21">
    <path d="M7.20274 16.8C4.95646 16.8 3.21478 16.2478 1.9777 15.1433C0.756898 14.0389 0.105803 12.4833 0.024416 10.4767C0.00813868 10.0567 0 9.37222 0 8.42333C0 7.45889 0.00813868 6.75889 0.024416 6.32333C0.105803 4.33222 0.765037 2.78444 2.00212 1.68C3.25548 0.56 4.98902 0 7.20274 0C8.65143 0 9.91293 0.241111 10.9872 0.723334C12.0615 1.19 12.8917 1.83556 13.4777 2.66C14.0637 3.46889 14.3729 4.38667 14.4055 5.41333V5.46C14.4055 5.58444 14.3485 5.69333 14.2346 5.78667C14.1369 5.86444 14.023 5.90333 13.8927 5.90333H11.5732C11.3779 5.90333 11.2314 5.86444 11.1337 5.78667C11.0361 5.70889 10.9547 5.56111 10.8896 5.34333C10.6291 4.36333 10.1978 3.67889 9.59552 3.29C8.99326 2.88556 8.18752 2.68333 7.17833 2.68333C4.83438 2.68333 3.61358 3.93556 3.51592 6.44C3.49964 6.86 3.4915 7.50556 3.4915 8.37667C3.4915 9.24778 3.49964 9.90889 3.51592 10.36C3.61358 12.8644 4.83438 14.1167 7.17833 14.1167C8.18752 14.1167 8.99326 13.9144 9.59552 13.51C10.2141 13.1056 10.6454 12.4211 10.8896 11.4567C10.9384 11.2389 11.0117 11.0911 11.1093 11.0133C11.2233 10.9356 11.3779 10.8967 11.5732 10.8967H13.8927C14.0392 10.8967 14.1613 10.9433 14.259 11.0367C14.3729 11.13 14.4218 11.2467 14.4055 11.3867C14.3729 12.4133 14.0637 13.3389 13.4777 14.1633C12.8917 14.9722 12.0615 15.6178 10.9872 16.1C9.91293 16.5667 8.65143 16.8 7.20274 16.8Z" fill="#122659"/>
    <path d="M17.6185 16.5667C17.4557 16.5667 17.3174 16.5122 17.2034 16.4033C17.0895 16.2944 17.0325 16.1622 17.0325 16.0067V0.56C17.0325 0.388889 17.0895 0.256667 17.2034 0.163334C17.3174 0.0544447 17.4557 0 17.6185 0H19.645C19.8241 0 19.9624 0.0544447 20.0601 0.163334C20.174 0.256667 20.231 0.388889 20.231 0.56V16.0067C20.231 16.1622 20.174 16.2944 20.0601 16.4033C19.9624 16.5122 19.8241 16.5667 19.645 16.5667H17.6185Z" fill="#122659"/>
    <path d="M28.939 16.8C27.1322 16.8 25.6916 16.3022 24.6173 15.3067C23.5593 14.2956 22.9977 12.88 22.9326 11.06L22.9082 10.4767L22.9326 9.89333C23.014 8.12 23.5837 6.72778 24.6417 5.71667C25.716 4.70556 27.1485 4.2 28.939 4.2C30.8597 4.2 32.3409 4.76 33.3827 5.88C34.4407 7 34.9697 8.49333 34.9697 10.36V10.85C34.9697 11.0056 34.9128 11.1378 34.7988 11.2467C34.6849 11.3556 34.5384 11.41 34.3593 11.41H26.2532V11.5967C26.2858 12.4522 26.5299 13.1756 26.9857 13.7667C27.4577 14.3422 28.1007 14.63 28.9146 14.63C29.8749 14.63 30.6481 14.2722 31.2341 13.5567C31.3806 13.3856 31.4945 13.2767 31.5759 13.23C31.6736 13.1833 31.8119 13.16 31.991 13.16H34.0908C34.2373 13.16 34.3593 13.2067 34.457 13.3C34.5709 13.3778 34.6279 13.4789 34.6279 13.6033C34.6279 13.9767 34.3919 14.42 33.9198 14.9333C33.4641 15.4311 32.8048 15.8667 31.9421 16.24C31.0794 16.6133 30.0784 16.8 28.939 16.8ZM31.6492 9.45V9.38C31.6492 8.46222 31.405 7.72333 30.9167 7.16333C30.4446 6.60333 29.7854 6.32333 28.939 6.32333C28.0925 6.32333 27.4333 6.60333 26.9613 7.16333C26.4892 7.72333 26.2532 8.46222 26.2532 9.38V9.45H31.6492Z" fill="#122659"/>
    <path d="M41.601 16.5667C41.3568 16.5667 41.1696 16.52 41.0394 16.4267C40.9092 16.3178 40.8034 16.17 40.722 15.9833L36.1562 5.15667L36.1074 4.94667C36.1074 4.80667 36.1562 4.69 36.2539 4.59667C36.3678 4.48778 36.498 4.43333 36.6445 4.43333H38.6222C38.9315 4.43333 39.1431 4.58111 39.257 4.87667L42.5044 13.0667L45.7517 4.87667C45.8006 4.76778 45.8738 4.66667 45.9715 4.57333C46.0854 4.48 46.2238 4.43333 46.3865 4.43333H48.3887C48.5189 4.43333 48.6328 4.48778 48.7305 4.59667C48.8444 4.69 48.9014 4.80667 48.9014 4.94667C48.9014 5.04 48.8933 5.11 48.877 5.15667L44.2868 15.9833C44.2054 16.17 44.0996 16.3178 43.9694 16.4267C43.8391 16.52 43.6519 16.5667 43.4078 16.5667H41.601Z" fill="#122659"/>
    <path d="M56.1448 16.8C54.338 16.8 52.8974 16.3022 51.8231 15.3067C50.7651 14.2956 50.2035 12.88 50.1384 11.06L50.114 10.4767L50.1384 9.89333C50.2198 8.12 50.7895 6.72778 51.8475 5.71667C52.9219 4.70556 54.3543 4.2 56.1448 4.2C58.0655 4.2 59.5467 4.76 60.5885 5.88C61.6465 7 62.1755 8.49333 62.1755 10.36V10.85C62.1755 11.0056 62.1186 11.1378 62.0046 11.2467C61.8907 11.3556 61.7442 11.41 61.5651 11.41H53.459V11.5967C53.4916 12.4522 53.7357 13.1756 54.1915 13.7667C54.6635 14.3422 55.3065 14.63 56.1204 14.63C57.0807 14.63 57.8539 14.2722 58.4399 13.5567C58.5864 13.3856 58.7003 13.2767 58.7817 13.23C58.8794 13.1833 59.0177 13.16 59.1968 13.16H61.2966C61.4431 13.16 61.5651 13.2067 61.6628 13.3C61.7767 13.3778 61.8337 13.4789 61.8337 13.6033C61.8337 13.9767 61.5977 14.42 61.1257 14.9333C60.6699 15.4311 60.0107 15.8667 59.148 16.24C58.2853 16.6133 57.2842 16.8 56.1448 16.8ZM58.855 9.45V9.38C58.855 8.46222 58.6108 7.72333 58.1225 7.16333C57.6504 6.60333 56.9912 6.32333 56.1448 6.32333C55.2983 6.32333 54.6391 6.60333 54.1671 7.16333C53.695 7.72333 53.459 8.46222 53.459 9.38V9.45H58.855Z" fill="#122659"/>
    <path d="M65.3533 16.5667C65.1905 16.5667 65.0521 16.5122 64.9382 16.4033C64.8242 16.2944 64.7673 16.1622 64.7673 16.0067V5.01667C64.7673 4.86111 64.8242 4.72889 64.9382 4.62C65.0521 4.49556 65.1905 4.43333 65.3533 4.43333H67.331C67.51 4.43333 67.6565 4.48778 67.7704 4.59667C67.8844 4.70556 67.9414 4.84556 67.9414 5.01667V5.97333C68.332 5.47556 68.8203 5.09444 69.4063 4.83C70.0086 4.56556 70.6922 4.43333 71.4573 4.43333H72.4583C72.6374 4.43333 72.7757 4.48778 72.8734 4.59667C72.9874 4.69 73.0443 4.82222 73.0443 4.99333V6.67333C73.0443 6.82889 72.9874 6.96111 72.8734 7.07C72.7757 7.17889 72.6374 7.23333 72.4583 7.23333H70.5539C69.7888 7.23333 69.1866 7.44333 68.7471 7.86333C68.3076 8.28333 68.0879 8.85889 68.0879 9.59V16.0067C68.0879 16.1622 68.0309 16.2944 67.9169 16.4033C67.803 16.5122 67.6565 16.5667 67.4775 16.5667H65.3533Z" fill="#122659"/>
    <path d="M75.8276 16.5667C75.6648 16.5667 75.5264 16.5122 75.4125 16.4033C75.2986 16.2944 75.2416 16.1622 75.2416 16.0067V0.816667C75.2416 0.645556 75.2904 0.505556 75.3881 0.396667C75.502 0.287778 75.6485 0.233333 75.8276 0.233333H82.9082C84.8127 0.233333 86.2288 0.637778 87.1566 1.44667C88.1007 2.24 88.5728 3.32889 88.5728 4.71333C88.5728 5.52222 88.3612 6.21444 87.9379 6.79C87.531 7.35 87.0508 7.75444 86.4974 8.00333C87.181 8.29889 87.7507 8.78111 88.2065 9.45C88.6786 10.1189 88.9146 10.8811 88.9146 11.7367C88.9146 13.1833 88.4018 14.35 87.3764 15.2367C86.3672 16.1233 84.9429 16.5667 83.1036 16.5667H75.8276ZM82.4687 6.93C83.3152 6.93 83.9581 6.73556 84.3976 6.34667C84.8371 5.95778 85.0568 5.43667 85.0568 4.78333C85.0568 4.11444 84.8371 3.60111 84.3976 3.24333C83.9581 2.87 83.3152 2.68333 82.4687 2.68333H78.6354V6.93H82.4687ZM82.7129 14.0933C83.5593 14.0933 84.2186 13.8756 84.6906 13.44C85.1626 12.9889 85.3987 12.4211 85.3987 11.7367C85.3987 11.0367 85.1626 10.4689 84.6906 10.0333C84.2186 9.58222 83.5593 9.35667 82.7129 9.35667H78.6354V14.0933H82.7129Z" fill="#122659"/>
    <path d="M95.3738 16.8C94.5436 16.8 93.7786 16.6444 93.0787 16.3333C92.395 16.0067 91.8497 15.5711 91.4428 15.0267C91.0521 14.4822 90.8568 13.8833 90.8568 13.23C90.8568 12.1722 91.3044 11.3167 92.1997 10.6633C93.0949 10.01 94.3239 9.56667 95.8865 9.33333L99.2315 8.86667V8.37667C99.2315 7.69222 99.0525 7.17889 98.6944 6.83667C98.3363 6.49444 97.7584 6.32333 96.9608 6.32333C96.4237 6.32333 95.9842 6.42444 95.6424 6.62667C95.3168 6.81333 95.0564 7 94.861 7.18667C94.6657 7.38889 94.5355 7.52111 94.4704 7.58333C94.4053 7.77 94.2832 7.86333 94.1041 7.86333H92.2241C92.0776 7.86333 91.9474 7.81667 91.8335 7.72333C91.7358 7.63 91.687 7.50556 91.687 7.35C91.7032 6.96111 91.8986 6.51778 92.2729 6.02C92.6636 5.52222 93.2577 5.09444 94.0553 4.73667C94.8529 4.37889 95.8296 4.2 96.9852 4.2C98.906 4.2 100.306 4.61222 101.185 5.43667C102.064 6.26111 102.503 7.34222 102.503 8.68V16.0067C102.503 16.1622 102.446 16.2944 102.332 16.4033C102.235 16.5122 102.096 16.5667 101.917 16.5667H99.9396C99.7768 16.5667 99.6385 16.5122 99.5245 16.4033C99.4106 16.2944 99.3536 16.1622 99.3536 16.0067V15.0967C98.9955 15.5944 98.4828 16.0067 97.8154 16.3333C97.1643 16.6444 96.3504 16.8 95.3738 16.8ZM96.2039 14.5833C97.0992 14.5833 97.8317 14.3033 98.4014 13.7433C98.9711 13.1833 99.2559 12.3667 99.2559 11.2933V10.8033L96.8143 11.1767C95.8702 11.3167 95.154 11.5422 94.6657 11.8533C94.1937 12.1644 93.9576 12.5456 93.9576 12.9967C93.9576 13.4944 94.1774 13.8833 94.6169 14.1633C95.0564 14.4433 95.5854 14.5833 96.2039 14.5833Z" fill="#122659"/>
    <path d="M112.667 16.8C110.991 16.8 109.689 16.2478 108.761 15.1433V16.0067C108.761 16.1622 108.704 16.2944 108.59 16.4033C108.492 16.5122 108.354 16.5667 108.175 16.5667H106.246C106.083 16.5667 105.945 16.5122 105.831 16.4033C105.717 16.2944 105.66 16.1622 105.66 16.0067V0.56C105.66 0.388889 105.717 0.256667 105.831 0.163334C105.945 0.0544447 106.083 0 106.246 0H108.321C108.5 0 108.639 0.0544447 108.736 0.163334C108.85 0.256667 108.907 0.388889 108.907 0.56V5.74C109.835 4.71333 111.089 4.2 112.667 4.2C114.311 4.2 115.573 4.71333 116.452 5.74C117.331 6.76667 117.803 8.09667 117.868 9.73C117.884 9.91667 117.892 10.1656 117.892 10.4767C117.892 10.8033 117.884 11.06 117.868 11.2467C117.803 12.9267 117.331 14.2722 116.452 15.2833C115.573 16.2944 114.311 16.8 112.667 16.8ZM111.764 14.3033C113.522 14.3033 114.458 13.2689 114.572 11.2C114.588 11.0444 114.596 10.8111 114.596 10.5C114.596 10.1889 114.588 9.95556 114.572 9.8C114.458 7.73111 113.522 6.69667 111.764 6.69667C110.852 6.69667 110.153 6.97667 109.664 7.53667C109.192 8.08111 108.94 8.74222 108.907 9.52L108.883 10.4067L108.907 11.3167C108.956 12.1567 109.208 12.8644 109.664 13.44C110.12 14.0156 110.82 14.3033 111.764 14.3033Z" fill="#122659"/>
    <path d="M122.38 21C122.25 21 122.136 20.9533 122.038 20.86C121.941 20.7667 121.892 20.6578 121.892 20.5333C121.892 20.3933 121.924 20.2689 121.989 20.16L123.894 15.8433L119.206 5.27333C119.141 5.13333 119.108 5.02444 119.108 4.94667C119.125 4.80667 119.182 4.69 119.279 4.59667C119.377 4.48778 119.499 4.43333 119.645 4.43333H121.623C121.932 4.43333 122.152 4.58111 122.282 4.87667L125.53 12.5067L128.875 4.87667C129.005 4.58111 129.225 4.43333 129.534 4.43333H131.487C131.617 4.43333 131.731 4.48 131.829 4.57333C131.943 4.66667 132 4.77556 132 4.9C132 5.00889 131.967 5.13333 131.902 5.27333L124.993 20.5567C124.846 20.8522 124.618 21 124.309 21H122.38Z" fill="#122659"/>    
  </symbol>
  <symbol id="icon-vk" viewBox="0 0 14 8">
    <path fill-rule="evenodd" clip-rule="evenodd" d="M6.84965 7.96651H7.68648C7.68648 7.96651 7.93926 7.93871 8.06831 7.79936C8.1871 7.67143 8.1833 7.43117 8.1833 7.43117C8.1833 7.43117 8.16695 6.30644 8.6881 6.14082C9.20183 5.97767 9.86152 7.22785 10.5608 7.70855C11.0895 8.07236 11.4913 7.99259 11.4913 7.99259L13.3609 7.96651C13.3609 7.96651 14.339 7.90616 13.8752 7.1359C13.8372 7.07289 13.6051 6.56611 12.4851 5.52477C11.3128 4.43487 11.4698 4.61116 12.882 2.72588C13.742 1.57774 14.0858 0.876778 13.9784 0.576558C13.876 0.290616 13.2434 0.366194 13.2434 0.366194L11.1383 0.37933C11.1383 0.37933 10.9823 0.358008 10.8666 0.427304C10.7535 0.495268 10.6807 0.65366 10.6807 0.65366C10.6807 0.65366 10.3475 1.54214 9.90315 2.29773C8.96577 3.89212 8.59098 3.97626 8.43779 3.87727C8.08143 3.64653 8.17037 2.95034 8.17037 2.45574C8.17037 0.910665 8.40434 0.266439 7.7148 0.0996707C7.48597 0.0442718 7.31758 0.00771992 6.73238 0.00181831C5.98127 -0.00598703 5.34552 0.00410255 4.98554 0.18077C4.74607 0.298231 4.56133 0.559995 4.67385 0.575035C4.81297 0.593692 5.12809 0.660132 5.29515 0.88801C5.51087 1.18195 5.50327 1.84217 5.50327 1.84217C5.50327 1.84217 5.62719 3.661 5.21381 3.88698C4.93005 4.04194 4.5408 3.72554 3.70511 2.27908C3.27691 1.53814 2.95362 0.719148 2.95362 0.719148C2.95362 0.719148 2.89128 0.566087 2.78009 0.484226C2.64515 0.385041 2.45661 0.35344 2.45661 0.35344L0.456232 0.366575C0.456232 0.366575 0.155938 0.374952 0.0457033 0.505739C-0.0523675 0.622058 0.0379107 0.862691 0.0379107 0.862691C0.0379107 0.862691 1.604 4.53273 3.37726 6.38221C5.00322 8.07788 6.84965 7.96651 6.84965 7.96651Z" fill="#122659"/>
  </symbol>
  <symbol id="icon-inst" viewBox="0 0 12 12">
    <path d="M6 0C7.6302 0 7.8336 0.00599997 8.4732 0.036C9.1122 0.066 9.5472 0.1662 9.93 0.315C10.326 0.4674 10.6596 0.6738 10.9932 1.0068C11.2983 1.30674 11.5344 1.66955 11.685 2.07C11.8332 2.4522 11.934 2.8878 11.964 3.5268C11.9922 4.1664 12 4.3698 12 6C12 7.6302 11.994 7.8336 11.964 8.4732C11.934 9.1122 11.8332 9.5472 11.685 9.93C11.5348 10.3307 11.2987 10.6936 10.9932 10.9932C10.6932 11.2982 10.3304 11.5343 9.93 11.685C9.5478 11.8332 9.1122 11.934 8.4732 11.964C7.8336 11.9922 7.6302 12 6 12C4.3698 12 4.1664 11.994 3.5268 11.964C2.8878 11.934 2.4528 11.8332 2.07 11.685C1.6694 11.5347 1.30652 11.2986 1.0068 10.9932C0.701644 10.6933 0.465559 10.3305 0.315 9.93C0.1662 9.5478 0.066 9.1122 0.036 8.4732C0.00779997 7.8336 0 7.6302 0 6C0 4.3698 0.00599997 4.1664 0.036 3.5268C0.066 2.8872 0.1662 2.4528 0.315 2.07C0.465142 1.66931 0.701282 1.30639 1.0068 1.0068C1.3066 0.701539 1.66946 0.465438 2.07 0.315C2.4528 0.1662 2.8872 0.066 3.5268 0.036C4.1664 0.00779997 4.3698 0 6 0ZM6 3C5.20435 3 4.44129 3.31607 3.87868 3.87868C3.31607 4.44129 3 5.20435 3 6C3 6.79565 3.31607 7.55871 3.87868 8.12132C4.44129 8.68393 5.20435 9 6 9C6.79565 9 7.55871 8.68393 8.12132 8.12132C8.68393 7.55871 9 6.79565 9 6C9 5.20435 8.68393 4.44129 8.12132 3.87868C7.55871 3.31607 6.79565 3 6 3ZM9.9 2.85C9.9 2.65109 9.82098 2.46032 9.68033 2.31967C9.53968 2.17902 9.34891 2.1 9.15 2.1C8.95109 2.1 8.76032 2.17902 8.61967 2.31967C8.47902 2.46032 8.4 2.65109 8.4 2.85C8.4 3.04891 8.47902 3.23968 8.61967 3.38033C8.76032 3.52098 8.95109 3.6 9.15 3.6C9.34891 3.6 9.53968 3.52098 9.68033 3.38033C9.82098 3.23968 9.9 3.04891 9.9 2.85ZM6 4.2C6.47739 4.2 6.93523 4.38964 7.27279 4.72721C7.61036 5.06477 7.8 5.52261 7.8 6C7.8 6.47739 7.61036 6.93523 7.27279 7.27279C6.93523 7.61036 6.47739 7.8 6 7.8C5.52261 7.8 5.06477 7.61036 4.72721 7.27279C4.38964 6.93523 4.2 6.47739 4.2 6C4.2 5.52261 4.38964 5.06477 4.72721 4.72721C5.06477 4.38964 5.52261 4.2 6 4.2Z" fill="#122659"/>
  </symbol >
  <symbol id="icon-facebook" viewBox="0 0 6 12">
    <path d="M4 6.9H5.42857L6 4.5H4V3.3C4 2.682 4 2.1 5.14286 2.1H6V0.0840001C5.81371 0.0582001 5.11029 0 4.36743 0C2.816 0 1.71429 0.9942 1.71429 2.82V4.5H0V6.9H1.71429V12H4V6.9Z" fill="#122659"/>
  </symbol>
  <symbol id="icon-star" viewBox="0 0 56 58">
    <path d="M1.07646 35.1596C6.54555 36.6885 11.9783 38.3604 17.411 40.0147L17.4507 40.173C19.4618 45.842 21.7869 51.4174 23.97 57.0225C24.3755 58.0642 25.818 58.425 26.4494 57.347C28.2776 54.2277 30.162 51.1424 31.9747 48.0143C33.3004 45.7265 35.0525 43.3672 35.5341 40.7406C35.6432 40.7967 35.7633 40.844 35.9043 40.8715C41.5795 41.9692 47.2844 42.3861 53.0587 42.0132C54.11 41.945 54.7238 40.9177 54.2324 39.9695C51.5424 34.7736 48.4084 29.9054 44.297 25.7136C43.7295 25.1351 42.6991 25.8907 43.1564 26.5925C45.875 30.7743 48.5451 34.9716 50.8614 39.3844C46.0789 39.5043 41.3635 39.1435 36.6361 38.224C35.7644 38.0546 35.1451 38.642 34.9666 39.3096C34.7869 39.2766 34.6007 39.2964 34.4475 39.4064C32.086 41.0914 30.8496 44.0579 29.428 46.5283C28.1013 48.8337 26.8108 51.1578 25.5105 53.4775C23.733 48.7886 21.9908 44.0766 20.0469 39.4592C19.8927 39.0929 19.6315 38.8498 19.3318 38.7101C19.3207 38.1789 19.0342 37.6587 18.3808 37.4596C13.7238 36.0429 9.06355 34.6218 4.42865 33.1325C9.04592 29.1552 13.8516 25.5135 18.7565 21.8629C19.2447 21.4988 19.3152 20.9686 19.1444 20.5463C19.205 20.4044 19.2491 20.2493 19.2568 20.0656C19.453 14.6089 19.3494 9.13359 19.3472 3.66924C23.9347 6.87218 28.5068 10.0542 33.0194 13.3726C32.8353 14.3362 33.9219 15.4988 35.1175 14.9312C40.5514 12.3541 46.1251 10.3622 51.9336 8.94991C49.0784 14.1833 45.6612 19.0504 42.9074 24.3354C42.4919 25.1329 43.4815 25.9171 44.1548 25.2957C49.29 20.5518 52.8075 13.8126 55.8335 7.60802C56.3889 6.46962 55.4787 5.26302 54.2269 5.5204C47.399 6.92718 40.8302 9.12041 34.5533 12.1287C29.9625 7.46834 24.4934 3.21389 18.7202 0.156138C17.8816 -0.288225 16.8171 0.259521 16.8149 1.24724C16.8038 7.51452 16.5691 13.8005 16.7377 20.0656C16.7421 20.2229 16.7851 20.3516 16.8303 20.4781C10.8146 23.6205 5.24413 27.9685 0.424096 32.697C-0.372633 33.479 0.0141513 34.8627 1.07646 35.1596Z" fill="#FEB9CC"/>
  </symbol>
  <symbol id="icon-pencil" viewBox="0 0 44 132">
    <path d="M32.7747 128.836C35.6849 128.398 38.6226 127.868 40.4614 125.449C42.5028 122.758 41.4863 119.604 40.4888 116.648C38.6637 118.651 35.7303 119.632 33.2096 120.302C30.2646 121.085 26.0624 121.303 22.7173 120.25C23.0783 122.343 23.3865 124.732 24.3133 126.589C25.3245 128.615 26.5416 128.983 28.8691 129.165C30.1517 129.264 31.5165 129.027 32.7747 128.836ZM39.3266 109.294C39.1915 109.126 39.1546 108.951 39.1789 108.794C36.7078 112.593 30.69 114.796 26.2936 114.929C24.2025 114.993 21.7061 114.768 19.6108 113.878C21.1962 118.32 25.9273 119.454 30.5422 118.639C34.2567 117.983 44.0577 115.151 39.3266 109.294ZM37.7486 103.301C37.6346 103.373 37.5111 103.43 37.3759 103.467C32.7103 108.595 24.0621 108.298 17.6801 107.164C16.1717 112.573 24.9794 113.006 28.278 112.474C32.3863 111.81 39.7066 108.874 37.7486 103.301ZM35.3735 102.154C32.6048 74.3566 26.245 47.5381 18.4043 20.7676C16.7354 22.5462 14.8259 23.9442 12.7475 24.9396C12.9533 25.063 13.1507 25.2177 13.3111 25.4446C16.689 30.2219 17.3983 37.3968 18.818 43.0033C20.5312 49.7788 22.1315 56.5825 23.6219 63.4102C26.529 76.7426 28.9842 90.165 31.0447 103.651C31.0858 103.92 31.0732 104.17 31.0373 104.409C32.5573 104.03 34.0425 103.457 35.4939 102.601C35.4369 102.465 35.3915 102.32 35.3735 102.154ZM17.3424 19.4711C13.8748 16.2413 10.6068 12.7866 7.3187 9.356C6.55658 10.9809 4.95212 12.0118 3.12388 12.1185C3.2421 15.9861 3.34767 19.8538 3.29278 23.7183C3.29067 23.8166 3.25795 23.8908 3.23895 23.9755C8.40172 24.3164 13.4019 22.9299 17.3424 19.4711ZM5.29413 9.27444C5.04713 9.16883 4.81173 9.04441 4.59006 8.90743C4.52884 9.26816 4.44228 9.62576 4.33884 9.98126C4.76634 9.84952 5.15163 9.6268 5.48835 9.32672L5.29413 9.27444ZM19.6319 104.885C22.0101 105.019 24.3017 105.139 26.5184 105.034L26.4814 104.896C24.4273 91.4092 21.9795 77.9859 19.0788 64.6503C17.6633 58.1477 16.1464 51.6661 14.5272 45.2095C13.0473 39.305 9.85101 32.355 10.268 26.2612C10.2775 26.1232 10.3176 26.0061 10.3503 25.8858C7.94677 26.6324 5.36907 26.8739 2.70271 26.554C10.2585 52.0781 14.9568 78.7376 19.6319 104.885ZM24.174 131.19C21.0284 129.527 20.5798 123.258 20.1048 120.226C20.0404 119.812 20.1565 119.459 20.3687 119.19C18.2934 117.885 16.9982 115.769 17.373 112.544L17.3877 112.495C17.012 112.159 16.6647 111.793 16.3712 111.37C14.9462 109.3 15.0645 106.3 17.2759 104.983C12.415 77.9984 5.73219 51.4287 0.518749 24.5308C0.431139 24.0822 0.695034 23.7643 1.02331 23.6483C0.438528 16.2454 0.452249 8.7966 0.00257831 1.38332C-0.0744806 0.118146 1.59542 -0.428696 2.44093 0.382687C8.52416 6.21607 14.8586 12.2544 19.578 19.2599L19.6488 19.4261C19.7628 19.5192 19.8588 19.6457 19.9232 19.812C29.8318 45.655 35.2954 73.2869 38.1212 100.751C38.4621 100.603 38.8601 100.827 38.9012 101.164C39.1124 101.24 39.3076 101.386 39.4427 101.661C40.7073 104.255 40.4909 106.527 39.4016 108.425C39.6021 108.272 39.8998 108.235 40.1795 108.449C42.2537 110.045 42.7097 112.785 41.5549 115.138C41.4905 115.269 41.3998 115.379 41.329 115.502C41.5497 115.523 41.7566 115.627 41.8727 115.875C43.285 118.906 44.8251 122.448 43.4856 125.777C42.1661 129.056 38.4906 130.262 35.3081 130.981C32.1857 131.688 27.1401 132.759 24.174 131.19Z" fill="#8DD9E5"/>
  </symbol>
  <symbol id="icon-house" viewBox="0 0 58 97"> 
    <path d="M52.9075 60.9783C51.4578 60.5893 49.9825 60.2703 48.5004 59.9822C48.8939 57.0383 49.1121 54.0688 49.2266 51.1626C50.7747 51.4439 52.32 51.7306 53.8654 52.0348L54.1012 52.0591C53.7509 55.042 53.3507 58.0142 52.9075 60.9783ZM51.4173 70.0349L51.319 69.9959C49.7103 69.7226 48.0868 69.5288 46.4579 69.3699C47.1572 67.1866 47.6934 64.9305 48.0949 62.6394C49.5311 63.0985 50.9741 63.5279 52.4319 63.8805C52.1058 65.9333 51.7865 67.9888 51.4173 70.0349ZM46.3596 93.0856C40.4597 91.8081 34.5276 90.7313 28.5415 89.9344C25.3511 89.509 22.1486 89.1725 18.942 88.8938C19.2896 83.6777 19.8865 76.9081 25.7553 75.1999C33.7098 72.8846 33.3743 84.2148 33.1372 88.7848C33.0536 90.4176 35.2996 90.4943 35.8116 89.1469C38.23 82.7839 35.0692 71.1145 26.6392 71.9302C18.1997 72.75 16.3431 81.6949 16.8995 88.708C15.8486 88.63 14.4461 88.6838 12.9533 88.7363C10.1212 88.8373 6.96722 88.9382 5.27366 88.1467C3.96139 88.5519 3.50467 88.0727 3.90347 86.7091C3.81185 85.8045 3.80512 84.8986 3.87788 83.9926C3.89674 82.2535 4.01126 80.5103 4.07728 78.7725C4.22548 74.858 4.37773 70.9436 4.52324 67.0277C4.53806 66.6064 4.55556 66.1837 4.57172 65.761C7.88878 66.6158 13.8223 68.4425 15.6694 65.0947C16.9022 62.8602 17.0181 59.5326 17.2148 56.6816C17.9127 56.2858 17.9693 55.2372 17.3913 54.7243L17.4209 54.4511C17.7888 51.7347 18.267 49.0142 18.5338 46.2816C26.0652 47.4096 33.5966 48.5161 41.1105 49.7586L41.0229 49.9161C38.9831 56.4043 38.3876 63.5333 37.9848 70.2907C37.9336 71.1428 38.7123 71.7175 39.4762 71.7808C43.2837 72.0958 47.1464 72.5454 50.9687 72.5292C49.6686 79.4267 48.1326 86.2783 46.3596 93.0856ZM4.89911 56.5739C5.9244 56.6183 6.94971 56.6574 7.975 56.6951C7.96557 59.3267 8.10568 61.9637 8.43577 64.6101C7.14236 64.4997 5.79237 64.2871 4.63235 64.2184C4.73339 61.6716 4.82635 59.1234 4.89911 56.5739ZM8.99357 44.7995C8.46812 48.0571 8.1259 51.3133 8.01138 54.5776C6.99013 54.614 5.97023 54.6544 4.95167 54.6974C5.02577 51.1787 5.02307 47.66 4.84118 44.1453C6.22351 44.3742 7.60989 44.5801 8.99357 44.7995ZM14.2238 56.8391C14.1928 57.0854 14.1658 57.3331 14.1349 57.5781C13.8371 59.9041 14.2763 63.7298 11.5723 64.4822C11.1479 64.5994 10.6656 64.6519 10.1576 64.6694C10.0956 62.0256 10.1078 59.394 10.2102 56.7704C11.5494 56.8095 12.8873 56.8296 14.2238 56.8391ZM10.3206 54.5009C10.5106 51.3847 10.8394 48.2779 11.3634 45.1711C12.7902 45.3932 14.217 45.6287 15.6452 45.8441C15.144 48.679 14.8341 51.5677 14.5094 54.4336C13.115 54.4417 11.7178 54.4619 10.3206 54.5009ZM41.0836 68.9257C41.2951 66.103 41.6265 63.299 41.9741 60.4978C43.025 60.8882 44.084 61.2718 45.1456 61.6473C44.8991 64.1632 44.6781 66.6804 44.5421 69.199C43.3888 69.1034 42.2355 69.0132 41.0836 68.9257ZM45.3599 59.4155C44.2955 59.2392 43.2298 59.0709 42.1668 58.9121C42.5306 56.0153 42.8984 53.1184 43.1624 50.2055L43.1517 50.0938C44.1743 50.2674 45.1955 50.4491 46.2168 50.6282L46.1346 50.9283C45.9352 53.7592 45.6455 56.5874 45.3599 59.4155ZM33.7125 6.55409C40.709 20.1699 47.2151 34.0199 53.1769 48.1231C41.7195 45.8401 30.0721 43.79 18.3815 42.6579C17.9342 42.215 17.1542 42.1383 16.6355 42.4963C12.9102 42.1665 9.18354 41.9229 5.45691 41.8112C16.7985 32.0708 25.8483 19.2505 33.7125 6.55409ZM57.8318 48.3088C51.1209 32.2525 43.7741 16.4964 35.7509 1.05123C34.9843 -0.425434 32.8286 -0.273326 32.023 1.05123C23.2413 15.4882 12.3807 28.1079 2.4888 41.7183C1.37998 41.7143 1.07145 43.518 2.22609 43.7159L2.30556 43.728C1.12397 52.7321 1.04585 61.8775 0.709026 70.9435C0.546002 75.2941 0.384312 79.642 0.222636 83.9926C0.157965 85.7614 -0.535879 89.1052 0.911121 90.6747C1.7963 91.6358 2.83776 91.5402 3.97758 91.7664C6.44852 92.2577 9.18353 92.2456 11.8822 92.2348C13.6067 92.2281 15.3164 92.2214 16.9332 92.3439C27.135 93.126 37.2168 94.7238 47.1976 96.9516C48.1434 97.1629 49.1606 96.6716 49.4207 95.6903C53.3292 80.9612 56.114 66.0249 57.8211 50.8839C57.8615 50.538 57.8049 50.2512 57.6917 50.0103C58.0124 49.5795 58.1215 49.0021 57.8318 48.3088Z" fill="#FFD787"/>
  </symbol>
  <symbol id="icon-rainbow" viewBox="0 0 153 126">
    <path d="M148.314 66.7538C145.682 73.0234 139.187 74.5012 133.299 72.6829C133.196 72.4295 133.095 72.1751 132.971 71.9289C132.237 70.4705 129.531 70.9405 129.995 72.742C131.198 77.4117 130.792 82.4334 126.523 85.4868C121.852 88.8272 115.629 86.6876 112.327 82.5916C111.973 82.1545 111.538 82.0493 111.14 82.1237C110.85 82.1069 110.556 82.207 110.374 82.4606C108.834 84.6129 107.697 86.6033 104.915 87.2963C101.912 88.0453 99.0516 86.6387 97.588 83.9735C94.1954 77.8006 99.1135 72.2999 105.167 71.2525C106.358 71.0459 106.385 69.308 105.162 69.125L104.896 69.1067C99.7735 65.6698 92.3629 61.2199 97.4932 54.2072C102.215 47.7527 110.125 50.5048 115.218 54.7217C116.421 55.7176 118.271 53.8821 117.156 52.7252C116.958 52.5176 116.74 52.3292 116.529 52.1316C117.179 52.2855 117.988 51.9813 118.014 51.2C118.241 44.1999 123.794 37.7741 131.264 38.8993C138.614 40.0068 141.533 47.7486 137.807 53.5855C137.197 53.7831 136.906 54.3088 136.934 54.852C136.081 56.4725 138.499 58.051 139.841 56.5547L139.925 56.4476C141.784 56.7061 143.674 56.9251 145.395 57.651C149.236 59.2693 149.799 63.2125 148.314 66.7538ZM67.749 43.5978C56.2862 48.2406 49.8209 60.8151 53.0281 72.6416C50.1414 72.3986 47.1616 72.8666 44.4085 73.9784C41.4137 58.4257 45.3942 42.5036 60.7238 35.0468C75.5322 27.8418 93.0057 33.7408 101.336 47.6187C98.8467 48.2428 96.5498 49.6227 94.7662 51.9749C90.2786 42.3366 77.5456 39.6302 67.749 43.5978ZM61.4804 81.41C66.6311 88.6517 60.9701 97.2983 52.9207 96.8401C52.5646 96.5265 52.187 96.2309 51.7703 95.9736C50.5104 95.1959 48.6334 96.7341 49.815 97.9865C53.0259 101.39 54.5164 106.896 50.7257 110.6C46.6656 114.565 39.8073 112.464 36.9582 108.155C36.772 107.874 36.484 107.876 36.2667 108.016C35.6865 107.71 34.9228 107.823 34.6295 108.602C32.1909 115.051 29.8977 122.349 21.2973 122.196C9.62124 121.986 15.7528 107.884 18.2745 102.028C19.121 101.149 18.096 99.8154 16.9484 100.164C13.268 101.285 4.19678 105.166 3.5638 98.1233C3.01272 92.0116 10.0555 90.3318 14.876 90.379C15.1067 90.5243 15.3289 90.6805 15.5779 90.8035C16.7991 91.4112 18.1304 89.6516 17.1892 88.6497C12.4227 83.5728 13.983 77.9241 20.624 75.277C26.7065 72.8525 34.6465 74.5152 35.2128 82.1631C35.3124 83.5033 37.3554 83.4446 37.529 82.1574C37.55 81.9941 37.559 81.8402 37.5731 81.6813C37.9964 81.8614 38.4923 81.852 38.9285 81.4891C45.5506 75.9686 55.5819 73.1134 61.4804 81.41ZM24.6043 34.9924C30.7544 22.1045 41.7464 12.2498 55.085 7.21279C82.4289 -3.11059 112.792 10.0256 125.204 36.1252C120.991 37.6822 117.821 41.4096 116.456 45.9583C110.282 24.1901 86.5479 10.5825 64.3566 16.2321C43.6843 21.4947 17.2922 49.3175 31.8942 71.5056C32.7473 72.8012 34.7963 71.5105 34.2061 70.1338C24.6877 47.9571 45.8382 23.9529 66.9727 19.5458C87.8259 15.1969 109.067 29.1813 113.59 49.8891C111.106 48.3665 108.256 47.413 105.436 47.2492C105.407 47.0257 105.334 46.7916 105.192 46.5472C96.081 30.9263 77.1192 23.7769 60.2836 31.3835C44.5378 38.4984 34.8315 58.2726 42.5784 74.5935L42.7014 74.7598C40.7576 75.7801 38.9748 77.1487 37.487 78.8553C36.1979 71.4239 26.4908 69.4362 19.716 71.9535C19.0409 58.9167 18.8069 47.1421 24.6043 34.9924ZM141.884 53.4092C144.961 46.6241 141.208 38.0986 133.624 35.9207C132.12 35.4883 130.669 35.3134 129.284 35.3493C129.249 35.2168 129.203 35.0817 129.138 34.9437C115.922 7.08886 83.9215 -6.87615 54.6385 3.47934C40.5784 8.45106 28.8635 18.6112 22.0265 31.8548C15.9046 43.7139 12.5238 59.9845 17.4967 72.8053L17.5774 72.9371C14.0112 74.8456 11.0439 77.76 10.8213 82.0354C10.7021 84.3192 11.3522 86.5853 12.6687 88.3514C6.37901 88.4442 -0.627004 91.4021 0.567898 98.9653C1.58185 105.374 8.10082 106.182 13.4346 104.534C9.0765 111.577 9.38232 123.281 18.2612 125.538C26.2915 127.582 37.2085 119.728 37.1977 111.105C40.5118 115.878 47.8589 117.208 52.5239 113.229C56.1756 110.115 57.1684 104.2 55.1477 99.8586C63.5053 100.061 69.6828 89.3798 65.9934 81.4915C63.8421 76.8938 60.0277 74.1456 55.739 73.0817C54.256 63.683 56.5831 54.265 64.9828 48.7198C74.1224 42.6857 89.581 44.1812 92.3985 56.5009C92.4259 56.6204 92.4661 56.7286 92.5106 56.8336C91.4881 62.2249 95.4513 66.9304 100.665 69.4838C94.2606 71.5512 91.0492 80.1253 95.1669 86.1011C97.433 89.39 101.377 91.0183 105.281 90.0501C107.6 89.475 110.199 87.8867 111.366 85.6698C115.235 90.0612 121.968 91.5239 127.265 88.7231C131.884 86.282 134.688 80.6385 134.036 75.4729C141.065 78.198 149.364 74.2196 151.913 66.8561C154.679 58.8685 148.863 53.9866 141.884 53.4092Z" fill="#FEB9CC"/>
  </symbol>
  <symbol id="icon-boy"  viewBox="0 0 118 133">
    <path d="M57.0935 25.9732C55.0531 24.9294 52.3865 25.8239 51.3569 27.844C50.9865 28.5705 51.95 29.4451 52.5441 28.7629C53.4492 27.7235 54.869 27.0988 56.2249 27.603C57.7252 28.1614 58.2367 29.863 57.7593 31.2916C57.4275 32.2823 58.9642 32.6891 59.3092 31.7206C60.0688 29.5921 59.1329 27.0159 57.0935 25.9732Z" fill="#8DD9E5"/>
    <path d="M80.0332 33.7903C77.5012 33.0826 74.4951 34.9336 74.5094 37.69C74.5116 38.1301 75.1399 38.328 75.3582 37.9211C76.1056 36.5235 77.5861 35.2675 79.2837 35.6113C81.1213 35.9828 81.7408 37.9443 81.431 39.5796C81.2624 40.4786 82.5499 41.1884 83.0074 40.2475C84.2078 37.7785 82.6635 34.5256 80.0332 33.7903Z" fill="#8DD9E5"/>
    <path d="M64.6667 36.4352C64.1541 36.3899 64.9919 36.4264 64.411 36.38C64.2423 36.3656 64.1178 36.3601 63.948 36.4021C63.6537 36.4784 63.3704 36.6553 63.1389 36.8455C62.6506 37.2435 62.3353 37.793 62.203 38.4089C61.934 39.6572 62.3143 41.0946 63.5093 41.7038C63.8885 41.8984 64.2357 41.8221 64.5554 41.5689C65.4163 40.8878 64.023 40.0796 63.9447 39.3642C63.9017 38.9772 64.0108 38.567 64.1861 38.2231C64.3382 37.9246 64.6127 37.751 64.7968 37.5022L64.9357 37.4304C65.466 37.1904 65.1341 36.4762 64.6667 36.4352Z" fill="#8DD9E5"/>
    <path d="M67.4349 44.0898C63.6472 43.6497 60.3787 42.742 57.1875 40.5505C56.7697 40.2641 56.278 40.9109 56.6484 41.2526C59.5255 43.9162 63.4499 45.7085 67.4349 45.4885C68.3498 45.4376 68.3134 44.1915 67.4349 44.0898Z" fill="#8DD9E5"/>
    <path d="M113.256 42.3495C111.409 43.0903 109.833 42.2445 108.534 41.047C108.583 40.9331 108.647 40.8248 108.693 40.7109C108.931 40.1127 108.474 39.6693 107.95 39.5787C107.734 37.9644 107.962 36.3987 109.751 35.4666C111.773 34.4118 114.517 35.2632 115.24 37.5033C115.834 39.3421 115.129 41.5999 113.256 42.3495ZM75.8035 48.4894C62.3946 51.6738 47.4016 44.3552 46.5197 29.455C46.2474 24.8576 47.3244 20.6858 49.3131 16.9973C54.0168 18.3053 58.7745 18.4159 63.5322 17.7005C62.4188 18.9853 61.2382 19.997 59.5979 21.1425C58.8715 21.65 58.8935 22.8873 59.8559 23.1283C66.5317 24.7979 72.9628 24.7083 79.2914 22.6429C78.2066 23.6657 76.9279 24.4684 75.4464 25.0069C74.3848 25.3916 74.3815 26.7936 75.4464 27.1795C81.5137 29.3787 87.6736 29.5612 93.7894 27.5566C92.9384 37.3927 85.8018 46.1155 75.8035 48.4894ZM79.8106 59.2665C77.0227 58.6838 74.225 58.1332 71.4019 57.7694C71.403 55.9461 71.3864 54.1218 71.3357 52.2952C72.8239 52.2067 74.3131 52.0121 75.7881 51.6959C77.0216 51.4316 78.2177 51.0811 79.3751 50.6599C79.6264 53.5678 80.0354 56.3243 79.8106 59.2665ZM66.1139 86.7293C59.922 86.0681 53.8635 84.6929 48.0299 82.4673C42.0144 80.1695 34.0059 76.7253 29.5204 71.9089C28.5129 70.8276 28.0697 71.1847 28.4644 69.7595C28.6727 69.0098 32.2697 66.4668 32.8793 65.915C35.0531 63.9513 37.1707 61.9301 39.2222 59.8415C43.4982 55.484 48.0189 50.8965 50.9919 45.5085C55.5942 49.688 61.8368 52.0586 68.3318 52.3228C68.6526 63.8673 67.924 75.3277 66.1139 86.7293ZM40.0048 44.5277C41.8645 42.4192 43.8189 40.3914 45.6565 38.2574C46.7269 40.5661 48.1468 42.6215 49.851 44.3962C48.4819 45.598 47.169 46.8685 45.8814 48.1665C44.1 46.7457 42.0563 45.566 40.0048 44.5277ZM64.4968 3.14302C64.6555 3.44377 64.9586 3.65606 65.4415 3.62178C77.2994 2.76708 89.8794 7.06046 93.1677 19.9152C93.5888 21.5626 93.8137 23.2145 93.8655 24.8498L93.6042 24.914C88.5797 26.6853 83.79 27.0214 78.8306 25.8195C80.7663 24.6176 82.2566 23.01 83.4494 20.7876C83.9939 19.7714 82.9269 18.8415 81.9579 19.2916C75.7947 22.1475 69.1994 23.0033 62.6415 21.5892C64.3391 20.2004 65.7468 18.6138 67.0222 16.691C67.5624 15.8772 66.6717 14.8633 65.7986 15.0944C60.3872 16.5251 55.4476 16.5716 49.9954 15.8263C53.3113 10.3853 58.6279 6.0753 64.4968 3.14302ZM50.4826 127.612C50.9313 127.616 51.3744 127.681 51.8088 127.805C53.1106 127.988 53.352 128.544 52.5308 129.476C51.9796 130.743 51.8253 130.597 50.6315 130.562C49.7738 130.537 48.9217 130.435 48.0828 130.259C46.8901 130.009 45.769 129.585 44.692 129.045C44.7703 128.926 44.8353 128.789 44.8772 128.624C46.1196 128.229 47.3365 127.816 48.6615 127.67C49.2634 127.603 49.8785 127.574 50.4826 127.612ZM7.03143 112.723C5.97208 112.307 3.44108 111.196 3.02991 110.029C2.71574 109.134 3.73871 109.57 4.31634 109.773C5.08027 110.041 5.78246 110.404 6.46592 110.833C7.62558 111.557 8.50636 112.485 9.44005 113.422C8.62541 113.23 7.8163 113.03 7.03143 112.723ZM30.9281 12.2063C29.4432 11.6358 28.3497 10.3941 28.364 8.69356C28.3828 6.52752 30.3736 5.02821 32.2939 4.52733C34.8194 3.86834 37.5642 4.72747 37.0571 7.83776C36.6206 10.5224 34.5206 12.7282 31.7097 11.6358C31.2323 11.4511 30.9446 11.8105 30.9281 12.2063ZM117.441 36.1499C115.95 32.8329 111.66 31.6343 108.544 33.3957C106.156 34.7435 104.594 38.4752 105.754 41.1178C102.606 44.2624 99.9637 47.4854 95.907 49.8262C91.7181 52.2421 87.2238 53.2991 82.5653 54.2246C82.4925 52.6402 82.2666 51.0811 81.7827 49.6493C92.4876 44.5322 98.9925 32.7356 96.6544 20.5034C94.3163 8.26676 80.7861 -2.287 68.258 0.430772C68.1345 0.350057 67.9703 0.314668 67.7751 0.354472C53.33 3.33098 41.7256 15.9756 43.6999 31.4342C43.9082 33.0706 44.2874 34.6097 44.7868 36.0726L44.5608 36.2472C43.7782 37.1517 42.9801 38.0573 42.172 38.9529C42.1467 38.7472 42.0794 38.536 41.913 38.3293C35.6384 30.5651 33.0567 23.5319 32.7128 13.6426C35.8776 14.6267 38.7658 11.2289 39.3269 7.83001C39.8307 4.78053 38.4615 1.73105 33.7402 1.84826C30.2954 1.9356 26.5055 4.18568 25.9951 7.84992C25.5972 10.7048 27.4436 14.0981 30.4254 14.3834C29.1588 23.5529 33.1934 34.1531 40.405 39.8407C40.6409 40.0276 40.8867 40.0961 41.1193 40.1017C39.8031 41.497 38.4263 42.8305 36.9315 44.0058C36.2337 44.5554 36.5412 45.7031 37.2005 46.1044C39.425 47.4545 41.8413 48.8454 44.3293 49.7598C40.2837 53.9858 36.4564 58.4704 32.1737 62.4454C28.8193 65.5579 21.8558 68.9678 26.6697 73.4657C27.0589 73.8284 27.4689 74.1723 27.8713 74.5228C24.3625 78.2855 21.3013 82.4574 18.2489 86.5947C16.5634 88.879 11.1178 94.0127 11.2567 96.966C11.3658 99.2867 14.7324 101.224 16.4168 102.386C17.1135 102.867 17.83 103.304 18.5587 103.716C16.9195 105.136 15.503 106.839 14.0501 108.436C13.0106 109.579 11.6558 110.731 10.6096 112.003C8.24952 109.294 1.82613 104.588 0.179229 108.537C-0.722491 110.699 1.9926 112.63 3.55132 113.579C5.47932 114.755 7.83173 115.55 10.107 115.323C10.3781 115.424 10.6945 115.427 11.023 115.243C13.0613 114.103 14.5891 111.692 16.0839 109.92C17.5125 108.225 19.004 106.476 20.0733 104.519C22.5448 105.733 25.1694 106.592 27.9077 107.089C28.2681 107.155 28.5746 107.072 28.8248 106.916C29.0299 106.957 29.2492 106.919 29.4311 106.738C32.0845 104.074 34.8062 100.969 36.8422 97.7997C37.4672 96.8243 36.0408 95.7277 35.2438 96.5635C32.9222 98.9995 30.7991 101.962 28.9692 104.857C28.8546 104.782 28.7333 104.711 28.5713 104.673C25.2918 103.853 22.1314 102.792 19.2443 100.982C17.9116 100.145 15.1667 98.8742 14.7942 97.4813C14.3918 95.9709 15.5912 95.0099 16.7861 93.348C20.9838 87.5081 25.391 81.6977 28.8579 75.3786C38.0371 82.955 50.2544 87.3927 62.022 89.2219C59.2386 96.706 57.1739 104.928 55.3032 112.735H55.3021C50.9809 112.845 45.3225 112.687 41.558 110.168C39.5749 108.839 40.782 107.316 41.4224 105.198C42.1434 102.817 42.8588 100.445 43.3659 98.0095C44.9973 98.0795 46.62 97.8307 48.1181 97.1781C48.9967 96.7967 48.5657 95.2557 47.6242 95.3507C41.7278 95.9441 37.1542 94.9469 33.1846 90.1816C32.5805 89.4561 31.4594 90.3859 31.9059 91.1711C33.8052 94.5103 37.5466 97.0343 41.4908 97.7897C40.3069 100.588 39.3622 103.483 38.4263 106.374C37.852 108.143 36.9844 109.98 38.585 111.409C40.2892 112.93 43.3835 113.765 45.6025 114.312C44.2257 118.716 43.2722 123.393 42.3969 127.923C42.3495 128.165 42.3704 128.385 42.4289 128.582C41.8204 129.052 41.6187 130.096 42.4862 130.59C45.2355 132.159 56.1575 135.7 55.7695 129.358C55.4729 124.543 49.291 124.849 45.3953 126.418C46.2904 122.566 47.1183 118.631 47.611 114.736C50.1277 115.2 52.7039 115.355 55.247 115.108C55.6637 115.5 56.3714 115.577 56.6491 114.932C60.0311 107.089 63.1728 98.0419 64.4185 89.5588C65.4095 89.6841 66.3972 89.7955 67.375 89.8841C67.9703 89.938 68.7264 89.3809 68.8279 88.7762C70.4252 79.1234 71.2762 69.4267 71.3853 59.6734C74.4036 60.5956 77.4923 61.291 80.5679 61.9843C81.1676 62.1203 82.0031 61.8052 82.1078 61.1075C82.3658 59.397 82.5709 57.5218 82.5907 55.6432C91.5186 56.1474 103.056 50.8379 107.677 42.7642C109.131 44.7334 112.479 45.294 114.586 44.4172C117.708 43.1191 118.764 39.09 117.441 36.1499Z" fill="#8DD9E5"/>
  </symbol>
</svg>