<svg width="44" height="44" viewBox="0 0 44 44" fill="none" xmlns="http://www.w3.org/2000/svg">
<g filter="url(#filter0_d_1_55)">
<path d="M22 32C28.6274 32 34 26.6274 34 20C34 13.3726 28.6274 8 22 8C15.3726 8 10 13.3726 10 20C10 26.6274 15.3726 32 22 32Z" fill="white"/>
</g>
<path fill-rule="evenodd" clip-rule="evenodd" d="M21.8496 23.9665H22.6865C22.6865 23.9665 22.9393 23.9387 23.0683 23.7994C23.1871 23.6714 23.1833 23.4312 23.1833 23.4312C23.1833 23.4312 23.167 22.3064 23.6881 22.1408C24.2018 21.9777 24.8615 23.2279 25.5608 23.7085C26.0895 24.0724 26.4913 23.9926 26.4913 23.9926L28.3609 23.9665C28.3609 23.9665 29.339 23.9062 28.8752 23.1359C28.8372 23.0729 28.6051 22.5661 27.4851 21.5248C26.3128 20.4349 26.4698 20.6112 27.882 18.7259C28.742 17.5777 29.0858 16.8768 28.9784 16.5766C28.876 16.2906 28.2434 16.3662 28.2434 16.3662L26.1383 16.3793C26.1383 16.3793 25.9823 16.358 25.8666 16.4273C25.7535 16.4953 25.6807 16.6537 25.6807 16.6537C25.6807 16.6537 25.3475 17.5421 24.9031 18.2977C23.9658 19.8921 23.591 19.9763 23.4378 19.8773C23.0814 19.6465 23.1704 18.9503 23.1704 18.4557C23.1704 16.9107 23.4043 16.2664 22.7148 16.0997C22.486 16.0443 22.3176 16.0077 21.7324 16.0018C20.9813 15.994 20.3455 16.0041 19.9855 16.1808C19.7461 16.2982 19.5613 16.56 19.6738 16.575C19.813 16.5937 20.1281 16.6601 20.2952 16.888C20.5109 17.1819 20.5033 17.8422 20.5033 17.8422C20.5033 17.8422 20.6272 19.661 20.2138 19.887C19.93 20.0419 19.5408 19.7255 18.7051 18.2791C18.2769 17.5381 17.9536 16.7191 17.9536 16.7191C17.9536 16.7191 17.8913 16.5661 17.7801 16.4842C17.6451 16.385 17.4566 16.3534 17.4566 16.3534L15.4562 16.3666C15.4562 16.3666 15.1559 16.375 15.0457 16.5057C14.9476 16.6221 15.0379 16.8627 15.0379 16.8627C15.0379 16.8627 16.604 20.5327 18.3773 22.3822C20.0032 24.0779 21.8496 23.9665 21.8496 23.9665Z" fill="#122659"/>
<defs>
<filter id="filter0_d_1_55" x="0" y="0" width="44" height="44" filterUnits="userSpaceOnUse" color-interpolation-filters="sRGB">
<feFlood flood-opacity="0" result="BackgroundImageFix"/>
<feColorMatrix in="SourceAlpha" type="matrix" values="0 0 0 0 0 0 0 0 0 0 0 0 0 0 0 0 0 0 127 0" result="hardAlpha"/>
<feOffset dy="2"/>
<feGaussianBlur stdDeviation="5"/>
<feColorMatrix type="matrix" values="0 0 0 0 0.645556 0 0 0 0 0.658545 0 0 0 0 0.691667 0 0 0 0.1 0"/>
<feBlend mode="normal" in2="BackgroundImageFix" result="effect1_dropShadow_1_55"/>
<feBlend mode="normal" in="SourceGraphic" in2="effect1_dropShadow_1_55" result="shape"/>
</filter>
</defs>
</svg>
